PathFileType  4	(X/Y/Z) C:\Users\antoi\Documents\MyRepositories\mobilecap\ResultsAnalysis
DataRate	CameraRate	NumFrames	NumMarkers	Units	OrigDataRate	OrigDataStartFrame	OrigNumFrames
100.0	100.0	7	51	mm	100.0	564	901
Frame#	Time	r_knee			r_shank_antsup			r_ankle			r_calc			r_5meta			r_toe			L_knee			L_shank_antsup			L_ankle			L_calc			L_5meta			L_toe			r_sh2			r_sh3			r_sh4			L_sh2			L_sh3			r_thigh1			r_thigh2			r_thigh3			r_thigh4			r_thigh5			L_thigh1			L_thigh2			L_thigh3			L_thigh4			r.ASIS			r.PSIS			L.ASIS			L.PSIS			C7			R_Shoulder			L_Shoulder			R_Sternum			L_Sternum			R_humerus			R_elbow_med			R_elbow_lat			R_forearm			R_wrist_radius			R_wrist_ulna			L_humerus			L_elbow_med			L_elbow_lat			L_forearm			L_wrist_radius			L_wrist_ulna			R_HJC			L_HJC			R_HJC_reg			L_HJC_reg			
		X1	Y1	Z1	X2	Y2	Z2	X3	Y3	Z3	X4	Y4	Z4	X5	Y5	Z5	X6	Y6	Z6	X7	Y7	Z7	X8	Y8	Z8	X9	Y9	Z9	X10	Y10	Z10	X11	Y11	Z11	X12	Y12	Z12	X13	Y13	Z13	X14	Y14	Z14	X15	Y15	Z15	X16	Y16	Z16	X17	Y17	Z17	X18	Y18	Z18	X19	Y19	Z19	X20	Y20	Z20	X21	Y21	Z21	X22	Y22	Z22	X23	Y23	Z23	X24	Y24	Z24	X25	Y25	Z25	X26	Y26	Z26	X27	Y27	Z27	X28	Y28	Z28	X29	Y29	Z29	X30	Y30	Z30	X31	Y31	Z31	X32	Y32	Z32	X33	Y33	Z33	X34	Y34	Z34	X35	Y35	Z35	X36	Y36	Z36	X37	Y37	Z37	X38	Y38	Z38	X39	Y39	Z39	X40	Y40	Z40	X41	Y41	Z41	X42	Y42	Z42	X43	Y43	Z43	X44	Y44	Z44	X45	Y45	Z45	X46	Y46	Z46	X47	Y47	Z47	X48	Y48	Z48	X49	Y49	Z49	X50	Y50	Z50	X51	Y51	Z51	

564	5.63000000	-262.16981	612.23276	-375.03427	-232.29046	466.09608	-357.42435	-300.44333	105.41361	-305.84642	-359.33878	71.28291	-364.77909	-163.53551	46.17525	-275.15328	-127.22012	75.83581	-326.02437	-270.85109	608.12642	-887.36394	-231.95496	405.78022	-899.54467	-341.96414	113.94776	-932.15870	-396.59043	72.23535	-872.38710	-198.42391	35.91466	-971.44148	-157.73700	69.78005	-913.57060	-239.03354	353.35697	-344.79174	-296.87250	473.09758	-320.97425	-307.82157	363.24158	-299.64622	-306.93693	430.13679	-942.33546	-330.08988	313.16232	-940.23543	-310.68111	902.35950	-392.23611	-267.38923	799.87412	-377.90349	-318.68387	754.63022	-367.90104	-410.70941	858.10166	-421.04634	-368.24568	749.64232	-394.09451	-281.75854	906.02853	-848.15021	-248.38830	776.56570	-867.58663	-389.41252	881.73929	-848.08977	-352.77047	752.61596	-880.17506	-292.45098	1135.37488	-483.79492	-460.82491	1204.32971	-581.82411	-285.66878	1117.99938	-754.71035	-454.24254	1202.54013	-673.58271	-246.13906	1643.23928	-623.67029	-158.79914	1582.00755	-452.26886	-171.58601	1601.30491	-796.44652	-112.63736	1538.02170	-599.09641	-112.90918	1538.53221	-646.62662	-120.98509	1324.61777	-382.88238	-186.62645	1178.65842	-399.26823	-152.90943	1213.02121	-323.44325	24.25919	1255.61700	-432.84414	93.79956	1278.30246	-484.01252	105.91480	1245.79087	-470.17608	-107.30475	1327.05998	-856.35672	-188.10318	1215.67204	-852.86231	-126.52631	1235.10406	-908.66926	35.90335	1262.52047	-785.45978	81.28896	1279.43195	-730.35271	95.06659	1254.74608	-749.88876	-389.21415	1059.51078	-519.63325	-387.78089	1052.75067	-716.98868	-380.86091	1063.28332	-527.42101	-368.03870	1059.79707	-706.15518	
565	5.64000000	-263.05743	612.14694	-373.48083	-232.68991	466.02732	-356.29817	-300.51697	105.28403	-305.65024	-359.46636	71.07291	-364.63235	-163.58473	46.36332	-275.25298	-127.37385	76.10603	-326.17349	-271.57811	608.09855	-886.53060	-232.51987	405.95297	-899.19402	-342.27217	114.06802	-932.01845	-396.84021	72.04003	-872.25228	-198.63780	35.90999	-970.47989	-157.94654	70.32102	-913.43690	-239.41486	353.21502	-344.03566	-297.21328	472.96529	-319.72929	-308.09044	363.08353	-298.78792	-307.65231	430.28169	-941.67728	-330.75662	313.33154	-939.75566	-315.16091	900.91248	-389.96846	-270.43367	799.47239	-375.97597	-320.95680	753.86343	-365.65222	-414.79957	856.14031	-417.82485	-370.86967	748.51417	-391.24824	-285.71325	905.59643	-846.31200	-250.66734	776.62200	-866.05029	-393.11329	880.05658	-846.85660	-354.72192	751.52105	-879.31413	-298.09689	1131.93550	-481.04690	-464.69054	1203.86349	-579.84314	-290.25925	1114.26550	-751.84656	-457.65747	1201.74735	-671.66237	-242.58578	1638.45657	-620.67722	-155.20281	1576.37309	-449.73897	-168.41297	1595.60218	-793.36338	-110.33736	1531.77872	-596.42579	-110.77013	1532.16111	-643.65450	-115.64484	1319.69303	-380.95216	-179.81021	1172.98207	-397.58295	-146.25756	1207.34885	-321.73720	30.41203	1252.00122	-430.96850	99.82390	1275.28021	-482.11215	112.26087	1243.04977	-468.27361	-102.10379	1322.52663	-853.20361	-181.61352	1210.05588	-849.98266	-120.24703	1230.21553	-905.72895	41.97949	1258.86099	-782.29762	87.24673	1276.23110	-727.39275	101.31357	1251.78120	-747.32060	-395.97975	1057.78334	-517.26341	-393.69260	1050.84607	-714.60423	-387.61467	1061.65248	-524.98801	-373.93410	1057.53634	-703.60015	
566	5.65000000	-263.92773	612.08071	-371.90687	-233.16869	466.04251	-355.02861	-300.59236	105.21399	-305.55332	-359.64990	70.85843	-364.55572	-163.72137	46.61639	-275.34039	-127.56781	76.45750	-326.35775	-272.26736	608.13416	-885.72663	-232.99956	406.12005	-898.94756	-342.50385	114.22563	-931.87135	-396.99762	71.94381	-872.14616	-198.84736	36.01880	-969.80665	-158.12788	70.86174	-913.45323	-239.78981	353.12869	-343.23517	-297.71006	472.89086	-318.27247	-308.16599	363.10404	-297.81179	-308.29836	430.48671	-941.20289	-331.27799	313.33335	-939.17001	-319.34305	900.22095	-387.77225	-273.19244	799.20387	-374.19620	-323.13892	753.24745	-363.29683	-418.76312	854.17162	-414.75817	-373.30688	747.21877	-388.46567	-289.74721	905.07744	-844.47853	-253.01528	776.65666	-864.47715	-396.90376	878.28236	-845.29162	-356.75298	750.44239	-878.37140	-303.73105	1128.37045	-478.34783	-468.56581	1203.12531	-577.93360	-294.88343	1110.30611	-749.04254	-461.04496	1200.69090	-669.82858	-238.98380	1633.33842	-617.60712	-151.40788	1570.38184	-446.86518	-165.20880	1589.50019	-790.12582	-108.08705	1525.08949	-593.41811	-108.60618	1525.39925	-640.48335	-110.17294	1314.34589	-378.94688	-172.91720	1167.06677	-395.81742	-139.39142	1201.37274	-319.86313	36.70762	1248.06573	-428.92831	105.88629	1272.21183	-479.82982	118.66338	1239.96772	-466.38452	-96.88985	1317.57538	-849.87851	-175.05807	1204.21366	-847.01273	-113.93472	1225.08245	-902.81292	48.06892	1254.97817	-779.33624	93.24956	1272.75246	-724.41352	107.61327	1248.53890	-744.60012	-402.69624	1055.89595	-514.93748	-399.56483	1048.71070	-712.25873	-394.33083	1059.77204	-522.66040	-379.72260	1055.04303	-701.15176	
567	5.66000000	-264.67597	612.05676	-370.21969	-233.65690	466.03753	-353.72775	-300.77811	105.11987	-305.45700	-359.90789	70.58747	-364.47587	-163.89011	46.86757	-275.41338	-127.80133	77.05417	-326.39000	-272.97898	608.18139	-884.94887	-233.38591	406.22718	-898.80145	-342.67638	114.31551	-931.71376	-397.11001	71.90479	-872.11260	-198.94048	36.33573	-969.57844	-158.24718	71.39961	-913.41955	-240.23454	353.07726	-342.36668	-298.18326	472.69763	-316.76278	-308.32441	362.85178	-296.73954	-308.95444	430.60803	-940.64808	-331.78699	313.29115	-938.62713	-323.24475	899.75635	-385.52268	-275.67049	799.19772	-372.50014	-325.16395	752.60182	-360.99050	-422.46520	852.27241	-411.66876	-375.42993	745.71966	-385.81458	-293.93436	904.52052	-842.53992	-255.44747	776.70947	-862.97819	-400.75646	876.42623	-843.81961	-358.88808	749.19045	-877.31434	-309.48318	1124.72730	-475.70160	-472.46570	1202.05877	-575.99945	-299.57105	1106.13913	-746.17450	-464.45890	1199.33665	-667.94773	-235.37368	1627.83627	-614.46294	-147.32963	1564.04707	-443.67188	-161.97329	1583.06232	-786.80392	-105.83695	1517.84707	-590.36008	-106.40103	1518.18912	-637.26996	-104.58121	1308.65975	-376.87185	-165.84992	1160.85777	-394.13123	-132.59111	1195.08495	-317.98815	43.09037	1243.86534	-426.72579	112.05543	1268.81156	-477.49055	125.11278	1236.55003	-464.41435	-91.67799	1312.30103	-846.48276	-168.55090	1198.12689	-843.89536	-107.64079	1219.61331	-899.68697	54.20854	1250.86938	-776.51806	99.32205	1268.99705	-721.57906	113.89699	1244.88817	-741.58514	-409.39571	1053.83893	-512.57680	-405.41839	1046.33713	-709.87087	-401.00141	1057.65538	-520.39245	-385.47516	1052.37662	-698.69248	
568	5.67000000	-265.34675	612.09945	-368.37446	-234.06771	465.97138	-352.47774	-301.11378	104.91793	-305.33679	-360.18325	70.25592	-364.35814	-164.01774	47.12687	-275.52652	-128.05049	77.78893	-326.23663	-273.64116	608.20653	-884.36438	-233.72329	406.29478	-898.74627	-342.82231	114.32184	-931.56522	-397.21708	71.83993	-872.10611	-198.95278	36.69472	-969.51219	-158.33266	71.93543	-913.30179	-240.63189	353.02995	-341.53270	-298.48996	472.39388	-315.38070	-308.56997	362.35747	-295.66531	-309.62009	430.58803	-939.97065	-332.35498	313.31091	-938.25159	-327.09377	899.15212	-383.27206	-278.03322	799.35962	-370.67556	-326.99688	751.96470	-358.70280	-426.01174	850.38878	-408.45669	-377.25906	744.26215	-383.30881	-298.28319	903.88550	-840.47911	-257.95126	776.77426	-861.75551	-404.71191	874.44799	-842.44544	-361.10374	747.77596	-876.28463	-315.54896	1120.97421	-472.89837	-476.39036	1200.80551	-573.92937	-304.26981	1101.76112	-743.13699	-467.93745	1197.72444	-665.94745	-231.73787	1621.96252	-611.22708	-143.28018	1557.36487	-440.55793	-158.67205	1576.27085	-783.37232	-103.52065	1510.11412	-587.60813	-104.28977	1510.60126	-634.03783	-98.90838	1302.66570	-374.70722	-158.62563	1154.28483	-392.51087	-125.82734	1188.47731	-316.09680	49.53360	1239.33860	-424.54244	118.27037	1265.01282	-475.35130	131.60231	1232.89253	-462.25899	-86.43165	1306.81616	-843.03495	-162.04540	1191.68230	-840.65542	-101.35807	1213.78318	-896.41323	60.41295	1246.44799	-773.53432	105.37943	1264.90691	-718.61210	120.13698	1240.88170	-738.43647	-416.25964	1051.64610	-510.08429	-411.30790	1043.78136	-707.34118	-407.79635	1055.52160	-517.89595	-391.43533	1049.55843	-696.01060	
569	5.68000000	-266.04320	612.19001	-366.38557	-234.40672	465.92974	-351.21545	-301.41226	104.66420	-305.22809	-360.40662	69.96040	-364.26978	-164.10400	47.35413	-275.72242	-128.26859	78.35449	-326.13721	-274.25891	608.20585	-883.99183	-234.07966	406.35634	-898.69250	-342.98268	114.33934	-931.43881	-397.32142	71.73936	-872.04897	-199.03972	36.94318	-969.29044	-158.46959	72.46915	-913.23674	-240.90178	352.90944	-340.74336	-298.75812	472.24014	-314.04269	-308.59154	361.89635	-294.49326	-310.17603	430.57067	-939.48014	-332.87883	313.35035	-937.99953	-331.04563	898.46467	-380.92502	-280.49822	799.49255	-368.63269	-328.81865	751.51567	-356.24997	-429.54088	848.40993	-405.35274	-378.97006	742.88912	-380.93153	-302.71813	903.03786	-838.43770	-260.58380	776.75811	-860.66005	-408.75802	872.31895	-840.90674	-363.34834	746.37690	-875.39652	-321.63798	1117.06633	-470.00187	-480.33128	1199.47197	-571.84871	-308.89641	1097.29696	-740.03908	-471.45421	1195.89239	-663.84756	-228.04460	1615.74770	-607.88852	-139.45086	1550.44198	-437.74118	-155.29605	1569.07909	-779.78281	-101.22723	1502.11487	-584.89989	-102.31354	1502.60665	-630.79596	-93.14360	1296.30753	-372.46892	-151.38338	1147.32298	-390.75548	-118.89426	1181.52851	-314.17606	56.01262	1234.43378	-422.40396	124.47726	1260.95373	-473.17042	138.13026	1229.02629	-459.87432	-81.13422	1301.05126	-839.52418	-155.41323	1184.80709	-837.28323	-95.04802	1207.64620	-893.16590	66.57951	1241.66695	-770.25380	111.41644	1260.37840	-715.29791	126.34466	1236.62214	-735.30742	-423.11762	1049.32798	-507.56134	-417.13823	1041.12070	-704.77644	-414.61430	1053.52450	-515.24723	-397.44423	1046.60014	-693.18633	
570	5.69000000	-266.78826	612.24031	-364.39808	-234.73891	465.92177	-349.87031	-301.51305	104.44574	-305.13526	-360.55076	69.76498	-364.24845	-164.15929	47.47443	-275.87709	-128.41095	78.65697	-326.22842	-274.93062	608.18422	-883.60036	-234.47274	406.38859	-898.54915	-343.19460	114.45240	-931.37091	-397.42578	71.64168	-871.92631	-199.26796	37.12815	-968.93963	-158.70623	72.96127	-913.26124	-241.13653	352.77080	-339.87397	-299.02727	472.26282	-312.53236	-308.78408	361.91348	-293.18731	-310.63193	430.68300	-939.29446	-333.28191	313.43390	-937.77490	-335.18294	897.71503	-378.34677	-283.27108	799.45915	-366.38661	-330.84108	751.02260	-353.74048	-433.10192	846.29688	-402.50858	-380.81076	741.40048	-378.64300	-307.22126	902.01851	-836.63124	-263.35721	776.64050	-859.54825	-412.79088	870.05186	-839.23699	-365.65197	744.93670	-874.44356	-327.37893	1112.97104	-467.15841	-484.31461	1198.00483	-569.92508	-313.48811	1092.80320	-736.85237	-474.97136	1193.87502	-661.71908	-224.28416	1609.22014	-604.49407	-135.49848	1543.22939	-435.09471	-151.93420	1561.41207	-776.13166	-99.15899	1493.90428	-581.79868	-100.35920	1494.25610	-627.43947	-87.25924	1289.58432	-370.16903	-144.14674	1139.93300	-388.80464	-111.77949	1174.08590	-312.29462	62.46571	1229.22877	-420.24611	130.74266	1256.64961	-470.67944	144.74069	1224.82843	-457.39934	-75.83133	1294.86502	-835.97934	-148.84372	1177.61724	-833.84115	-88.72649	1201.17776	-889.84971	72.64454	1236.55350	-766.89307	117.50575	1255.48527	-711.94037	132.53102	1232.08769	-732.17944	-429.75994	1046.87880	-505.07774	-422.82939	1038.34247	-702.24884	-421.24616	1051.50309	-512.69583	-403.16570	1043.51102	-690.32730	
